<?xml version="1.0" encoding="UTF-8"?>
<svg version="1.1" xmlns="http://www.w3.org/2000/svg" width="1024" height="1024">
<path d="M0 0 C337.92 0 675.84 0 1024 0 C1024 337.92 1024 675.84 1024 1024 C686.08 1024 348.16 1024 0 1024 C0 686.08 0 348.16 0 0 Z " fill="#FAFAFB" transform="translate(0,0)"/>
<path d="M0 0 C0.58652344 0.31259766 1.17304687 0.62519531 1.77734375 0.94726562 C15.81888792 8.49967747 28.94664414 17.56631383 41 28 C41.804375 28.69351563 42.60875 29.38703125 43.4375 30.1015625 C45.99974955 32.35995554 48.50724111 34.6651036 51 37 C51.49226074 37.45826172 51.98452148 37.91652344 52.49169922 38.38867188 C67.30289776 52.29061329 78.69455448 68.56829584 89 86 C89.44472656 86.74411133 89.88945313 87.48822266 90.34765625 88.25488281 C101.30670119 106.86072403 112 132.03844363 112 154 C99.92777183 156.15091064 87.84516419 158.23209496 75.75 160.25 C74.86391052 160.39796021 73.97782104 160.54592041 73.06488037 160.69836426 C58.43193659 163.13745858 43.78433021 165.47513753 29.125 167.75 C27.74797913 167.96372253 27.74797913 167.96372253 26.34313965 168.1817627 C21.09817336 168.99457566 15.85201627 169.79923028 10.60510254 170.59936523 C7.89677505 171.01587481 5.19007065 171.44201609 2.48339844 171.86914062 C0.69468065 172.14725888 -1.09405569 172.42525786 -2.8828125 172.703125 C-3.69668427 172.833703 -4.51055603 172.96428101 -5.34909058 173.09881592 C-9.9614352 173.80833321 -14.33323381 174.12909235 -19 174 C-19.47308594 172.82566406 -19.94617188 171.65132812 -20.43359375 170.44140625 C-32.58997046 140.66420261 -48.86635349 113.38759243 -79.81787109 100.34228516 C-99.86733268 92.33118203 -120.05902203 89.81230482 -141.55273438 89.81469727 C-143.73327356 89.81251673 -145.91329999 89.79429768 -148.09375 89.77539062 C-175.43329313 89.66470032 -204.21940721 95.1427488 -224.75 114.5546875 C-237.95795815 128.9091698 -241.83331864 145.72523669 -241.14355469 164.58789062 C-240.38884505 177.26906623 -233.3826378 190.51986638 -224 199 C-203.86638631 216.01190118 -178.08408541 223.47769661 -153.38989258 231.24609375 C-151.03867313 231.98780033 -148.68991049 232.73680579 -146.34179688 233.48828125 C-125.94684655 240.00709003 -105.41627604 245.85745177 -84.73202515 251.38583374 C-51.64726567 260.23617077 -18.07944095 269.35561655 12.97070312 284.04248047 C14.9466004 284.97480351 16.93335422 285.88014993 18.921875 286.78515625 C44.92622577 298.91116547 70.52228523 318.11714011 88 341 C88.73734375 341.92167969 89.4746875 342.84335937 90.234375 343.79296875 C96.43467703 351.7143891 101.36653426 360.1016643 106 369 C106.32242676 369.61746094 106.64485352 370.23492188 106.97705078 370.87109375 C117.89042104 392.11533098 123.40283736 416.16325783 124 440 C124.03867188 441.20414551 124.03867188 441.20414551 124.078125 442.43261719 C125.60157269 494.78208842 108.96017942 544.49471794 73 583 C72.09725342 583.96848877 72.09725342 583.96848877 71.17626953 584.95654297 C41.47296551 616.47056402 1.39407165 636.5709846 -40 648 C-41.11769775 648.31952637 -42.23539551 648.63905273 -43.38696289 648.96826172 C-52.44570415 651.49278036 -61.50521801 653.27633138 -70.8125 654.625 C-71.52842316 654.73016937 -72.24434631 654.83533875 -72.98196411 654.94369507 C-154.50943375 666.83796914 -247.9332683 658.47245901 -316 608 C-316.60682617 607.55011719 -317.21365234 607.10023438 -317.83886719 606.63671875 C-326.73998661 599.96928553 -334.97302779 592.68851942 -343 585 C-343.75023437 584.29101562 -344.50046875 583.58203125 -345.2734375 582.8515625 C-350.6694222 577.62620182 -355.38380613 571.91800544 -360 566 C-360.42684082 565.4548877 -360.85368164 564.90977539 -361.29345703 564.34814453 C-369.22068972 554.14273821 -375.88695657 543.37802117 -382 532 C-382.39429199 531.26894043 -382.78858398 530.53788086 -383.19482422 529.78466797 C-394.74093795 507.96768293 -406.52879449 478.006413 -406 453 C-378.88913719 448.26971045 -351.76994183 443.59357116 -324.625 439.0625 C-323.48536804 438.87172882 -322.34573608 438.68095764 -321.17156982 438.48440552 C-287.58173767 432.86584103 -287.58173767 432.86584103 -280 433 C-279.74420166 433.64324219 -279.48840332 434.28648437 -279.22485352 434.94921875 C-265.6433866 468.8832203 -248.19909384 496.69819731 -217 517 C-216.06671875 517.61875 -215.1334375 518.2375 -214.171875 518.875 C-197.62282383 529.22971358 -179.03112351 532.95076098 -160 536 C-158.33759277 536.27046143 -158.33759277 536.27046143 -156.64160156 536.54638672 C-152.75887251 537.03003586 -148.93723563 537.17857513 -145.03125 537.203125 C-144.28201767 537.21018463 -143.53278534 537.21724426 -142.760849 537.22451782 C-105.19593977 537.49746682 -67.93757341 533.58667262 -39.1875 506.75 C-24.17583151 490.85691244 -20.46966051 472.32506512 -20.7265625 451.27734375 C-21.22746961 434.57134767 -28.94583852 421.35376677 -41 410 C-47.56383341 404.6344686 -54.56925895 400.48469135 -62.1875 396.8125 C-63.10112305 396.36753174 -63.10112305 396.36753174 -64.03320312 395.91357422 C-76.7469728 390.07633443 -90.48288653 386.46244989 -103.99160767 382.99050903 C-147.7008468 371.70263538 -191.44785491 359.09094268 -234 344 C-235.32658128 343.53346706 -236.65324273 343.06716204 -237.97998047 342.60107422 C-265.07148168 333.05747954 -292.50403642 322.8719435 -316 306 C-316.92594971 305.33677734 -316.92594971 305.33677734 -317.87060547 304.66015625 C-353.70221179 278.84250874 -375.39767442 245.43052181 -382.91015625 201.87109375 C-388.80791462 164.56860506 -384.62334429 126.8137942 -370 92 C-369.54802246 90.9186377 -369.54802246 90.9186377 -369.08691406 89.81542969 C-362.60407988 74.5927746 -353.84354333 60.513449 -343 48 C-341.94039062 46.77603516 -341.94039062 46.77603516 -340.859375 45.52734375 C-338.60911163 42.98202837 -336.31932539 40.48249401 -334 38 C-333.24074219 37.18660156 -332.48148437 36.37320313 -331.69921875 35.53515625 C-325.53181769 29.14568838 -318.86226869 23.66292313 -311.77929688 18.33935547 C-310.63488727 17.47790773 -309.49513499 16.61021894 -308.36132812 15.73486328 C-233.49785127 -42.01630721 -108.7384941 -47.4179499 0 0 Z " fill="#DF3E32" transform="translate(652,190)"/>
<path d="M0 0 C2.97 0.495 2.97 0.495 6 1 C6 1.66 6 2.32 6 3 C8.31 3.66 10.62 4.32 13 5 C9.29218328 6.23593891 8.32489747 5.5678132 4.8125 4.0625 C3.91144531 3.68222656 3.01039063 3.30195312 2.08203125 2.91015625 C1.39496094 2.60980469 0.70789063 2.30945313 0 2 C0 1.34 0 0.68 0 0 Z " fill="#DB271E" transform="translate(411,529)"/>
<path d="M0 0 C0.33 0.66 0.66 1.32 1 2 C0.0409375 2.1546875 0.0409375 2.1546875 -0.9375 2.3125 C-1.618125 2.539375 -2.29875 2.76625 -3 3 C-3.33 3.99 -3.66 4.98 -4 6 C-5.98 6.33 -7.96 6.66 -10 7 C-7.0094833 3.66442368 -4.06815373 1.84916079 0 0 Z " fill="#DD261D" transform="translate(367,191)"/>
<path d="M0 0 C3.3 0.99 6.6 1.98 10 3 C5.07692308 4.23076923 5.07692308 4.23076923 2 3 C1.34 2.01 0.68 1.02 0 0 Z " fill="#D92118" transform="translate(474,414)"/>
<path d="M0 0 C-0.33 0.99 -0.66 1.98 -1 3 C-3.97 2.67 -6.94 2.34 -10 2 C-6.00889681 0.0044484 -4.30013434 -0.19546065 0 0 Z " fill="#DF493C" transform="translate(725,348)"/>
</svg>
